<?xml version="1.0" encoding="UTF-8"?>
<svg id="_256x256" data-name="256x256" xmlns="http://www.w3.org/2000/svg" viewBox="0 0 256 256">
  <defs>
    <style>
      .cls-1 {
        fill: #f78f21;
      }

      .cls-2 {
        fill: #221f1f;
      }
    </style>
  </defs>
  <path class="cls-2" d="m223.77,161.59c-.85,5.31-2.19,10.59-3.96,15.79l16.12,14.18c-1.61,3.83-3.43,7.61-5.49,11.32-1.57,2.83-3.25,5.58-5.02,8.22l-29.95-51.37c5.79-28.62-7.21-58.89-34.1-73.8l23.42-42.24c3.71,2.06,7.26,4.3,10.66,6.69l-6.16,20.57c4.26,3.47,8.19,7.24,11.73,11.29l20.32-6.86c5.1,6.74,9.43,13.97,12.93,21.55l-15.62,14.73c1.93,5.08,3.43,10.31,4.49,15.63l21.05,4.21c1.05,8.29,1.21,16.72.45,25.13l-20.87,4.95Z"/>
  <g>
    <path class="cls-1" d="m132.08,46.98s.79,1.07,1.99,2.68c-2.84-.18-5.69-.22-8.53-.15-33.07.88-64.85,18.72-82.05,49.76-16.13,29.1-15.64,62.9-1.68,90.51l-11.86,20.35c-22.92-35.16-26.13-81.51-4.37-120.78,21.41-38.61,61.42-60.36,102.65-60.32,2.94,0,5.87.12,8.81.35l-3.02,3.04-1.96,14.58Z"/>
    <path class="cls-1" d="m148.19,50.45l18.39,3.69c-4.4,5.97-11.96,9.23-19.71,7.68-10.66-2.14-17.57-12.52-15.43-23.19,2.14-10.66,12.52-17.57,23.19-15.43,7.75,1.56,13.46,7.48,15.22,14.69l-18.39-3.69-7.08,7.03,3.82,9.22Z"/>
  </g>
  <g>
    <polygon class="cls-1" points="141.76 82.74 127.4 107.38 113.03 82.74 127.4 58.1 141.76 82.74"/>
    <polygon class="cls-2" points="127.4 107.38 115.49 127.8 101.13 152.44 86.87 176.91 68.63 208.2 54.14 233.07 25.34 233.19 39.84 208.32 72.51 152.27 86.77 127.8 101.13 103.16 113.03 82.74 127.4 107.38"/>
    <polygon class="cls-2" points="176.56 232.57 147.9 232.69 119.45 232.81 107.2 232.86 78.4 232.97 92.9 208.1 92.9 208.1 98.97 197.68 105.02 208.05 121.7 207.98 133.47 207.93 127.6 197.85 113.24 173.21 127.6 148.57 141.96 173.21 162.13 207.81 176.56 232.57"/>
    <polygon class="cls-1" points="228.96 232.36 200.31 232.47 185.88 207.72 153.86 152.79 139.5 128.15 153.86 103.51 168.22 128.15 214.53 207.6 228.96 232.36"/>
  </g>
</svg>